Coordinates
version=1
nRows=26
nColumns=22
inDegrees=yes

Units are S.I. units (second, meters, Newtons, ...)
If the header above contains a line with 'inDegrees', this indicates whether rotational values are in degrees (yes) or radians (no).

endheader
time	pelvis_tilt	pelvis_list	pelvis_rotation	pelvis_tx	pelvis_ty	pelvis_tz	hip_flexion_r	hip_adduction_r	hip_rotation_r	knee_angle_r	ankle_angle_r	subtalar_angle_r	hip_flexion_l	hip_adduction_l	hip_rotation_l	knee_angle_l	ankle_angle_l	subtalar_angle_l	lumbar_extension	lumbar_bending	lumbar_rotation
      0.01000000	     -0.39241418	     -3.96929323	      2.81004629	      1.07514232	      1.01325817	      0.16961567	     -0.56811371	      1.75394534	     -3.94321765	    -12.54344292	     10.24767981	      1.81604938	     -2.03236976	     -6.19261433	    -10.70106658	    -10.08228517	     11.69197415	     -1.03212812	     -1.79392621	      0.53957176	      0.14045351
      0.02000000	     -0.38914754	     -3.96585051	      2.83582586	      1.07506285	      1.01328109	      0.16963044	     -0.57776080	      1.75343142	     -3.96816865	    -12.52540779	     10.24297235	      1.82794705	     -2.05122810	     -6.18973526	    -10.69964870	    -10.03234213	     11.68279900	     -1.02260411	     -1.79218873	      0.52921289	      0.13890105
      0.03000000	     -0.36752594	     -3.94397378	      2.87930030	      1.07494310	      1.01333587	      0.16963165	     -0.60048740	      1.73372652	     -4.01724233	    -12.52026325	     10.23848753	      1.84597839	     -2.09229038	     -6.16605126	    -10.64906044	     -9.96990665	     11.64227069	     -0.99588098	     -1.81712210	      0.49424276	      0.12845394
      0.04000000	     -0.37029793	     -3.94163878	      2.90409334	      1.07480661	      1.01334582	      0.16967744	     -0.59403428	      1.73499517	     -4.03986487	    -12.51434838	     10.23900129	      1.84814151	     -2.10863515	     -6.16531878	    -10.65348239	     -9.90715299	     11.64145858	     -0.99055813	     -1.81286069	      0.48140696	      0.12548447
      0.05000000	     -0.36239149	     -3.92504550	      2.93951602	      1.07464447	      1.01337677	      0.16971684	     -0.59587408	      1.72150671	     -4.08718736	    -12.51430248	     10.23534038	      1.85166370	     -2.14317997	     -6.14647827	    -10.61259995	     -9.82629131	     11.60076940	     -0.97035612	     -1.82464157	      0.45031148	      0.12265322
      0.06000000	     -0.36844053	     -3.92604316	      2.96170956	      1.07446871	      1.01337837	      0.16978499	     -0.58032736	      1.72737778	     -4.10677143	    -12.51381812	     10.23397019	      1.85193969	     -2.16126586	     -6.14838516	    -10.62062510	     -9.75051432	     11.59964105	     -0.96598991	     -1.82055619	      0.44149335	      0.11584755
      0.07000000	     -0.37159728	     -3.92333973	      2.98344524	      1.07427275	      1.01338722	      0.16986154	     -0.56488052	      1.72883332	     -4.13721258	    -12.51660168	     10.22786492	      1.85080816	     -2.18983601	     -6.14424574	    -10.59921331	     -9.65893401	     11.56566035	     -0.95303963	     -1.82285278	      0.42613223	      0.12318180
      0.08000000	     -0.38090873	     -3.92767713	      2.99756910	      1.07406853	      1.01337908	      0.16996189	     -0.54213542	      1.73901638	     -4.15164683	    -12.51822883	     10.22524796	      1.84980391	     -2.20987669	     -6.14944300	    -10.61062347	     -9.57271408	     11.56166421	     -0.94949359	     -1.81931056	      0.42057906	      0.11253764
      0.09000000	     -0.39221109	     -3.93472953	      3.00630521	      1.07386257	      1.01337050	      0.17007371	     -0.51621202	      1.75175902	     -4.16789627	    -12.52030914	     10.22025587	      1.84809131	     -2.23428707	     -6.15620442	    -10.61457296	     -9.47605765	     11.54539636	     -0.94418393	     -1.81397594	      0.41787342	      0.11348628
      0.10000000	     -0.40332026	     -3.94244604	      3.01368396	      1.07365516	      1.01336222	      0.17019179	     -0.49097855	      1.76512396	     -4.17908354	    -12.52110638	     10.21375117	      1.84581557	     -2.25912010	     -6.16408974	    -10.61937020	     -9.37947216	     11.52434936	     -0.93894096	     -1.80854937	      0.41429632	      0.11413857
      0.11000000	     -0.41207588	     -3.94853927	      3.01680334	      1.07344748	      1.01336442	      0.17032064	     -0.47097353	      1.77808174	     -4.18443317	    -12.51636414	     10.20121983	      1.84028042	     -2.28887226	     -6.16925360	    -10.61528259	     -9.27924216	     11.47958664	     -0.93101066	     -1.80736275	      0.40962485	      0.12790960
      0.12000000	     -0.42267817	     -3.95445027	      3.02024786	      1.07324509	      1.01335885	      0.17045813	     -0.45008023	      1.79067346	     -4.19174344	    -12.51010164	     10.19581493	      1.83767783	     -2.30823260	     -6.17778130	    -10.63049054	     -9.19653326	     11.47017973	     -0.92828341	     -1.80483884	      0.40429332	      0.11609705
      0.13000000	     -0.43427392	     -3.96179725	      3.02163518	      1.07304928	      1.01336015	      0.17059590	     -0.43061741	      1.80499341	     -4.20055153	    -12.49921327	     10.18723625	      1.83465391	     -2.32647910	     -6.18681118	    -10.63867106	     -9.11388928	     11.44962642	     -0.92289678	     -1.80069122	      0.40001068	      0.11556114
      0.14000000	     -0.44517794	     -3.96718853	      3.02455896	      1.07285761	      1.01336559	      0.17073423	     -0.41433808	      1.81774696	     -4.20674674	    -12.48453606	     10.17540586	      1.83096911	     -2.34005838	     -6.19500663	    -10.64438909	     -9.04092864	     11.42469696	     -0.91556473	     -1.79758646	      0.39261057	      0.11455724
      0.15000000	     -0.45600064	     -3.97007052	      3.02678885	      1.07266537	      1.01337677	      0.17087280	     -0.40024299	      1.82823718	     -4.21352802	    -12.46595640	     10.16283737	      1.82696728	     -2.34618101	     -6.20145740	    -10.64847958	     -8.98248239	     11.40206569	     -0.90708577	     -1.79676351	      0.38232529	      0.11071242
      0.16000000	     -0.46763490	     -3.97142879	      3.03074872	      1.07247762	      1.01339155	      0.17100494	     -0.38688674	      1.83689987	     -4.22133734	    -12.44536491	     10.14946479	      1.82267826	     -2.34553240	     -6.20729540	    -10.65085109	     -8.93493334	     11.38086380	     -0.89719750	     -1.79540814	      0.36932624	      0.10403065
      0.17000000	     -0.48129165	     -3.97096598	      3.03662329	      1.07229423	      1.01340655	      0.17113059	     -0.37302710	      1.84377156	     -4.22984714	    -12.42292743	     10.13373181	      1.81716575	     -2.33661879	     -6.21155723	    -10.64892776	     -8.89832099	     11.35727876	     -0.88444501	     -1.79196301	      0.35452540	      0.09363745
      0.18000000	     -0.48470206	     -3.97095916	      3.03664463	      1.07208599	      1.01343133	      0.17125738	     -0.36248953	      1.85065296	     -4.23236046	    -12.41233364	     10.13310017	      1.81688325	     -2.32666363	     -6.21820533	    -10.65005080	     -8.88597421	     11.35613711	     -0.88341812	     -1.80739613	      0.34106138	      0.09124275
      0.19000000	     -0.51083827	     -3.96749515	      3.05028038	      1.07192527	      1.01343704	      0.17135593	     -0.34377406	      1.85379796	     -4.23995041	    -12.37773503	     10.10853636	      1.80963954	     -2.29756586	     -6.21895524	    -10.64178919	     -8.86076580	     11.31817553	     -0.86506385	     -1.78679956	      0.32207833	      0.06095266
      0.20000000	     -0.51405385	     -3.96743145	      3.05049637	      1.07173252	      1.01346380	      0.17146694	     -0.33350359	      1.86011702	     -4.24142335	    -12.36942238	     10.10796504	      1.80920382	     -2.28625726	     -6.22492649	    -10.64123151	     -8.85200238	     11.31719663	     -0.86413332	     -1.80255460	      0.30947605	      0.05897634
      0.21000000	     -0.53824782	     -3.96056829	      3.06860008	      1.07151926	      1.01346863	      0.17154841	     -0.30553163	      1.85992254	     -4.22764147	    -12.35310244	     10.08522633	      1.79900705	     -2.23480718	     -6.22432424	    -10.61319304	     -8.86874990	     11.28155895	     -0.84805050	     -1.79642866	      0.28789557	      0.02394228
      0.22000000	     -0.54183057	     -3.96073273	      3.07182395	      1.07134609	      1.01348870	      0.17162674	     -0.29549706	      1.86511440	     -4.22755938	    -12.34623709	     10.08505256	      1.79834282	     -2.22349043	     -6.22849689	    -10.61344001	     -8.85949779	     11.28147229	     -0.84746227	     -1.81103907	      0.27795983	      0.02250874
      0.23000000	     -0.55594070	     -3.95516205	      3.08483628	      1.07113368	      1.01349590	      0.17168736	     -0.26980934	      1.86545242	     -4.19231491	    -12.34687888	     10.07310804	      1.78999560	     -2.18362572	     -6.22770533	    -10.59045279	     -8.87687784	     11.26259353	     -0.84054005	     -1.81981599	      0.26211742	     -0.00625901
      0.24000000	     -0.56964168	     -3.95171317	      3.09372235	      1.07094275	      1.01349842	      0.17173262	     -0.24457695	      1.86664082	     -4.15906313	    -12.34856621	     10.06633586	      1.78095915	     -2.15013276	     -6.22674318	    -10.57364666	     -8.88659708	     11.25023034	     -0.83636992	     -1.82742598	      0.25098020	     -0.02158475
      0.25000000	     -0.57641772	     -3.94927287	      3.09874681	      1.07076254	      1.01350743	      0.17177013	     -0.22457444	      1.86783845	     -4.12195796	    -12.35535101	     10.06228346	      1.77430230	     -2.12629612	     -6.22650674	    -10.56367625	     -8.89411196	     11.24160850	     -0.83488736	     -1.84259801	      0.24387873	     -0.03291262
      0.26000000	     -0.57748173	     -3.94771554	      3.10468090	      1.07058647	      1.01352068	      0.17180242	     -0.20879205	      1.87038267	     -4.08168648	    -12.36618645	     10.05858302	      1.77019830	     -2.10861654	     -6.22775459	    -10.55661713	     -8.90115407	     11.23374318	     -0.83444209	     -1.86346060	      0.23756826	     -0.04232375
